{
  "accessors": [
    {
      "bufferView": 2,
      "componentType": 5126,
      "count": 19811,
      "max": [
        0.2520981431007385,
        0.2353028655052185,
        0.5204588770866394
      ],
      "min": [
        -0.24256493151187897,
        -0.2327803373336792,
        -0.482509970664978
      ],
      "type": "VEC3"
    },
    {
      "bufferView": 2,
      "byteOffset": 237732,
      "componentType": 5126,
      "count": 19811,
      "max": [
        0.9999580979347229,
        0.9999226927757263,
        0.9952298402786255
      ],
      "min": [
        -0.9999884366989136,
        -0.9999188184738159,
        -0.9990078806877136
      ],
      "type": "VEC3"
    },
    {
      "bufferView": 1,
      "componentType": 5126,
      "count": 19811,
      "max": [
        0.8729441165924072,
        0.999725341796875
      ],
      "min": [
        0.0002727508544921875,
        0.000274658203125
      ],
      "type": "VEC2"
    },
    {
      "bufferView": 0,
      "componentType": 5125,
      "count": 81921,
      "type": "SCALAR"
    },
    {
      "bufferView": 2,
      "byteOffset": 475464,
      "componentType": 5126,
      "count": 7520,
      "max": [
        0.22280123829841614,
        0.201966792345047,
        0.2949557304382324
      ],
      "min": [
        -0.017703033983707428,
        -0.1489945650100708,
        -0.451943576335907
      ],
      "type": "VEC3"
    },
    {
      "bufferView": 2,
      "byteOffset": 565704,
      "componentType": 5126,
      "count": 7520,
      "max": [
        0.9999915957450867,
        0.9993482828140259,
        0.9999545812606812
      ],
      "min": [
        -0.9877855777740479,
        -0.9950224161148071,
        -0.9924464821815491
      ],
      "type": "VEC3"
    },
    {
      "bufferView": 1,
      "byteOffset": 158488,
      "componentType": 5126,
      "count": 7520,
      "max": [
        1,
        0.634674072265625
      ],
      "min": [
        0,
        0
      ],
      "type": "VEC2"
    },
    {
      "bufferView": 0,
      "byteOffset": 327684,
      "componentType": 5125,
      "count": 20424,
      "type": "SCALAR"
    },
    {
      "bufferView": 2,
      "byteOffset": 655944,
      "componentType": 5126,
      "count": 112,
      "max": [
        0.15953053534030914,
        0.014131147414445877,
        -0.08467914164066315
      ],
      "min": [
        0.1530877649784088,
        0.002637181431055069,
        -0.09679361432790756
      ],
      "type": "VEC3"
    },
    {
      "bufferView": 2,
      "byteOffset": 657288,
      "componentType": 5126,
      "count": 112,
      "max": [
        0.8789159059524536,
        0.9305678606033325,
        0.9696708917617798
      ],
      "min": [
        -0.48134511709213257,
        -0.9089905023574829,
        -0.9698722958564758
      ],
      "type": "VEC3"
    },
    {
      "bufferView": 1,
      "byteOffset": 218648,
      "componentType": 5126,
      "count": 112,
      "max": [
        0.44515037536621094,
        0.3765373229980469
      ],
      "min": [
        0.43890953063964844,
        0.37012481689453125
      ],
      "type": "VEC2"
    },
    {
      "bufferView": 0,
      "byteOffset": 409380,
      "componentType": 5125,
      "count": 330,
      "type": "SCALAR"
    },
    {
      "bufferView": 2,
      "byteOffset": 658632,
      "componentType": 5126,
      "count": 6364,
      "max": [
        0.1887327879667282,
        0.2116437405347824,
        0.3793675899505615
      ],
      "min": [
        -0.2358136773109436,
        -0.2190922051668167,
        -0.46237385272979736
      ],
      "type": "VEC3"
    },
    {
      "bufferView": 2,
      "byteOffset": 735000,
      "componentType": 5126,
      "count": 6364,
      "max": [
        0.9988997578620911,
        0.9997900724411011,
        0.9976794123649597
      ],
      "min": [
        -0.9959539771080017,
        -0.9990705251693726,
        -0.9974470734596252
      ],
      "type": "VEC3"
    },
    {
      "bufferView": 1,
      "byteOffset": 219544,
      "componentType": 5126,
      "count": 6364,
      "max": [
        0.8563487529754639,
        0.725983202457428
      ],
      "min": [
        0.0002727508544921875,
        0.05895233154296875
      ],
      "type": "VEC2"
    },
    {
      "bufferView": 0,
      "byteOffset": 410700,
      "componentType": 5125,
      "count": 28107,
      "type": "SCALAR"
    },
    {
      "bufferView": 2,
      "byteOffset": 811368,
      "componentType": 5126,
      "count": 180,
      "max": [
        0.14102105796337128,
        0.1766365021467209,
        0.27643075585365295
      ],
      "min": [
        -0.009081713855266571,
        -0.003497771918773651,
        -0.04820854216814041
      ],
      "type": "VEC3"
    },
    {
      "bufferView": 2,
      "byteOffset": 813528,
      "componentType": 5126,
      "count": 180,
      "max": [
        0.8788970112800598,
        0.4110526442527771,
        0.24202647805213928
      ],
      "min": [
        0.8788966536521912,
        0.41105183959007263,
        0.2420254498720169
      ],
      "type": "VEC3"
    },
    {
      "bufferView": 1,
      "byteOffset": 270456,
      "componentType": 5126,
      "count": 180,
      "max": [
        0.03125210478901863,
        1.0004925727844238
      ],
      "min": [
        -0.000010815056157298386,
        0.9843793511390686
      ],
      "type": "VEC2"
    },
    {
      "bufferView": 0,
      "byteOffset": 523128,
      "componentType": 5125,
      "count": 918,
      "type": "SCALAR"
    },
    {
      "bufferView": 2,
      "byteOffset": 815688,
      "componentType": 5126,
      "count": 180,
      "max": [
        0.15814918279647827,
        0.20339280366897583,
        0.28219375014305115
      ],
      "min": [
        -0.04335925728082657,
        -0.0840071365237236,
        -0.05931305140256882
      ],
      "type": "VEC3"
    },
    {
      "bufferView": 2,
      "byteOffset": 817848,
      "componentType": 5126,
      "count": 180,
      "max": [
        0.878896951675415,
        0.41105273365974426,
        0.2420264482498169
      ],
      "min": [
        0.8788965344429016,
        0.41105177998542786,
        0.24202565848827362
      ],
      "type": "VEC3"
    },
    {
      "bufferView": 1,
      "byteOffset": 271896,
      "componentType": 5126,
      "count": 180,
      "max": [
        0.03125210478901863,
        1.0004925727844238
      ],
      "min": [
        -0.000010815056157298386,
        0.9843793511390686
      ],
      "type": "VEC2"
    },
    {
      "bufferView": 0,
      "byteOffset": 526800,
      "componentType": 5125,
      "count": 918,
      "type": "SCALAR"
    },
    {
      "bufferView": 2,
      "byteOffset": 820008,
      "componentType": 5126,
      "count": 575,
      "max": [
        -0.11635245382785797,
        0.06992485374212265,
        0.4863229990005493
      ],
      "min": [
        -0.20625048875808716,
        -0.05127669870853424,
        0.39633962512016296
      ],
      "type": "VEC3"
    },
    {
      "bufferView": 2,
      "byteOffset": 826908,
      "componentType": 5126,
      "count": 575,
      "max": [
        0.9068147540092468,
        0.9937812685966492,
        0.962550938129425
      ],
      "min": [
        -0.9973049759864807,
        -0.9197302460670471,
        -0.7726103067398071
      ],
      "type": "VEC3"
    },
    {
      "bufferView": 1,
      "byteOffset": 273336,
      "componentType": 5126,
      "count": 575,
      "max": [
        0.5927333831787109,
        0.2907562255859375
      ],
      "min": [
        0.5311927795410156,
        0.21540069580078125
      ],
      "type": "VEC2"
    },
    {
      "bufferView": 0,
      "byteOffset": 530472,
      "componentType": 5125,
      "count": 2313,
      "type": "SCALAR"
    },
    {
      "bufferView": 2,
      "byteOffset": 833808,
      "componentType": 5126,
      "count": 391,
      "max": [
        -0.16220787167549133,
        -0.08589071035385132,
        0.4601880609989166
      ],
      "min": [
        -0.2045205533504486,
        -0.10924790799617767,
        0.3208232522010803
      ],
      "type": "VEC3"
    },
    {
      "bufferView": 2,
      "byteOffset": 838500,
      "componentType": 5126,
      "count": 391,
      "max": [
        0.47308629751205444,
        0.9107553958892822,
        0.9694464206695557
      ],
      "min": [
        -0.9943122863769531,
        -0.9990144968032837,
        -0.9886182546615601
      ],
      "type": "VEC3"
    },
    {
      "bufferView": 1,
      "byteOffset": 277936,
      "componentType": 5126,
      "count": 391,
      "max": [
        0.1430187225341797,
        0.5757789611816406
      ],
      "min": [
        0.13831710815429688,
        0.5089225769042969
      ],
      "type": "VEC2"
    },
    {
      "bufferView": 0,
      "byteOffset": 539724,
      "componentType": 5125,
      "count": 1917,
      "type": "SCALAR"
    }
  ],
  "asset": {
    "extras": {
      "author": "blazitt (https://sketchfab.com/blazitt)",
      "license": "CC-BY-4.0 (http://creativecommons.org/licenses/by/4.0/)",
      "source": "https://sketchfab.com/3d-models/flipper-zero-f8ad3fdf5f2b485ba46b0ac91626fc76",
      "title": "Flipper Zero"
    },
    "generator": "Sketchfab-14.64.0",
    "version": "2.0"
  },
  "bufferViews": [
    {
      "buffer": 0,
      "byteLength": 547392,
      "name": "floatBufferViews",
      "target": 34963,
      "byteOffset": 0
    },
    {
      "buffer": 0,
      "byteLength": 281064,
      "byteOffset": 547392,
      "byteStride": 8,
      "name": "floatBufferViews",
      "target": 34962
    },
    {
      "buffer": 0,
      "byteLength": 843192,
      "byteOffset": 828456,
      "byteStride": 12,
      "name": "floatBufferViews",
      "target": 34962
    }
  ],
  "buffers": [
    {
      "uri": "flipper_zero_data.bin",
      "byteLength": 1671648
    }
  ],
  "extensionsUsed": [
    "KHR_materials_clearcoat",
    "KHR_materials_specular"
  ],
  "materials": [
    {
      "doubleSided": true,
      "extensions": {
        "KHR_materials_clearcoat": {
          "clearcoatFactor": 0.2605722226962977,
          "clearcoatRoughnessFactor": 0.04
        }
      },
      "name": "Flipper_Main",
      "pbrMetallicRoughness": {
        "roughnessFactor": 0.8979044507564213
      }
    },
    {
      "doubleSided": true,
      "extensions": {
        "KHR_materials_clearcoat": {
          "clearcoatFactor": 0.21790542599748874,
          "clearcoatRoughnessFactor": 0.04
        }
      },
      "name": "Flipper_Orange",
      "pbrMetallicRoughness": {
        "baseColorFactor": [
          1,
          0.2232279573168085,
          0,
          1
        ],
        "roughnessFactor": 0.7333325206324439
      }
    },
    {
      "doubleSided": true,
      "emissiveFactor": [
        0.00189939,
        0.326375,
        0
      ],
      "name": "Flipper_Green"
    },
    {
      "doubleSided": true,
      "name": "Flipper_Black",
      "pbrMetallicRoughness": {
        "baseColorFactor": [
          0.046559472231579496,
          0.046559472231579496,
          0.046559472231579496,
          1
        ],
        "roughnessFactor": 0
      }
    },
    {
      "doubleSided": true,
      "emissiveFactor": [
        0.41142982530994376,
        0.09184263948315011,
        0
      ],
      "extensions": {
        "KHR_materials_specular": {
          "specularColorFactor": [
            1,
            1,
            1
          ],
          "specularFactor": 0.10819080591483707
        }
      },
      "name": "Flipper_Screen",
      "pbrMetallicRoughness": {
        "baseColorFactor": [
          1,
          0.2232279573168085,
          0,
          1
        ],
        "metallicFactor": 0.5531445429167022,
        "roughnessFactor": 0.7969548097670393
      }
    },
    {
      "doubleSided": true,
      "name": "Flipper_Screen_Glow",
      "pbrMetallicRoughness": {
        "baseColorFactor": [
          0,
          0,
          0,
          1
        ],
        "roughnessFactor": 0.6201923663005449
      }
    },
    {
      "doubleSided": true,
      "extensions": {
        "KHR_materials_specular": {
          "specularColorFactor": [
            1,
            1,
            1
          ],
          "specularFactor": 0
        }
      },
      "name": "Flipper_InfraRed",
      "pbrMetallicRoughness": {
        "baseColorFactor": [
          0,
          0,
          0,
          1
        ]
      }
    },
    {
      "doubleSided": true,
      "name": "Flipper_Pins",
      "pbrMetallicRoughness": {
        "baseColorFactor": [
          0.760525,
          0.483686,
          0.131237,
          1
        ],
        "roughnessFactor": 0.327273
      }
    }
  ],
  "meshes": [
    {
      "name": "Object_0",
      "primitives": [
        {
          "attributes": {
            "NORMAL": 1,
            "POSITION": 0,
            "TEXCOORD_0": 2
          },
          "indices": 3,
          "material": 0,
          "mode": 4
        }
      ]
    },
    {
      "name": "Object_1",
      "primitives": [
        {
          "attributes": {
            "NORMAL": 5,
            "POSITION": 4,
            "TEXCOORD_0": 6
          },
          "indices": 7,
          "material": 1,
          "mode": 4
        }
      ]
    },
    {
      "name": "Object_2",
      "primitives": [
        {
          "attributes": {
            "NORMAL": 9,
            "POSITION": 8,
            "TEXCOORD_0": 10
          },
          "indices": 11,
          "material": 2,
          "mode": 4
        }
      ]
    },
    {
      "name": "Object_3",
      "primitives": [
        {
          "attributes": {
            "NORMAL": 13,
            "POSITION": 12,
            "TEXCOORD_0": 14
          },
          "indices": 15,
          "material": 3,
          "mode": 4
        }
      ]
    },
    {
      "name": "Object_4",
      "primitives": [
        {
          "attributes": {
            "NORMAL": 17,
            "POSITION": 16,
            "TEXCOORD_0": 18
          },
          "indices": 19,
          "material": 4,
          "mode": 4
        }
      ]
    },
    {
      "name": "Object_5",
      "primitives": [
        {
          "attributes": {
            "NORMAL": 21,
            "POSITION": 20,
            "TEXCOORD_0": 22
          },
          "indices": 23,
          "material": 5,
          "mode": 4
        }
      ]
    },
    {
      "name": "Object_6",
      "primitives": [
        {
          "attributes": {
            "NORMAL": 25,
            "POSITION": 24,
            "TEXCOORD_0": 26
          },
          "indices": 27,
          "material": 6,
          "mode": 4
        }
      ]
    },
    {
      "name": "Object_7",
      "primitives": [
        {
          "attributes": {
            "NORMAL": 29,
            "POSITION": 28,
            "TEXCOORD_0": 30
          },
          "indices": 31,
          "material": 7,
          "mode": 4
        }
      ]
    }
  ],
  "nodes": [
    {
      "children": [
        1
      ],
      "matrix": [
        1,
        0,
        0,
        0,
        0,
        2.220446049250313e-16,
        -1,
        0,
        0,
        1,
        2.220446049250313e-16,
        0,
        0,
        0,
        0,
        1
      ],
      "name": "Sketchfab_model"
    },
    {
      "children": [
        2
      ],
      "name": "root"
    },
    {
      "children": [
        3
      ],
      "matrix": [
        1,
        0,
        0,
        0,
        0,
        2.220446049250313e-16,
        1,
        0,
        0,
        -1,
        2.220446049250313e-16,
        0,
        0,
        0,
        0,
        1
      ],
      "name": "GLTF_SceneRootNode"
    },
    {
      "children": [
        4,
        5,
        6,
        7,
        8,
        9,
        10,
        11
      ],
      "name": "flipper_Model_0"
    },
    {
      "mesh": 0,
      "name": "Object_4"
    },
    {
      "mesh": 1,
      "name": "Object_5"
    },
    {
      "mesh": 2,
      "name": "Object_6"
    },
    {
      "mesh": 3,
      "name": "Object_7"
    },
    {
      "mesh": 4,
      "name": "Object_8"
    },
    {
      "mesh": 5,
      "name": "Object_9"
    },
    {
      "mesh": 6,
      "name": "Object_10"
    },
    {
      "mesh": 7,
      "name": "Object_11"
    }
  ],
  "scene": 0,
  "scenes": [
    {
      "name": "Sketchfab_Scene",
      "nodes": [
        0
      ]
    }
  ]
}